<svg width="1200" height="320" viewBox="0 0 1200 320" xmlns="http://www.w3.org/2000/svg" xmlns:xlink="http://www.w3.org/1999/xlink">
<defs>
  <linearGradient id="bg3" x1="0%" y1="0%" x2="100%" y2="100%">
    <stop offset="0%" stop-color="#0A0A0F"/>
    <stop offset="100%" stop-color="#0D0A14"/>
  </linearGradient>
  <radialGradient id="ambient2" cx="50%" cy="50%" r="50%">
    <stop offset="0%" stop-color="#FF10F0" stop-opacity="0.10"/>
    <stop offset="100%" stop-color="#FF10F0" stop-opacity="0"/>
  </radialGradient>
  <filter id="pinkGlow2" x="-100%" y="-100%" width="300%" height="300%">
    <feGaussianBlur stdDeviation="5" result="blur"/>
    <feFlood flood-color="#FF10F0" flood-opacity="0.9" result="pink"/>
    <feComposite in="pink" in2="blur" operator="in" result="glowColor"/>
    <feMerge>
      <feMergeNode in="glowColor"/>
      <feMergeNode in="SourceGraphic"/>
    </feMerge>
  </filter>
</defs>
<rect width="1200" height="320" fill="url(#bg3)"/>
<circle cx="600" cy="160" r="550" fill="url(#ambient2)"/>
<defs>
<symbol id="icon-python" viewBox="0 0 128 128"><linearGradient id="python-original-a" gradientUnits="userSpaceOnUse" x1="70.252" y1="1237.476" x2="170.659" y2="1151.089" gradientTransform="matrix(.563 0 0 -.568 -29.215 707.817)"><stop offset="0" stop-color="#5A9FD4"/><stop offset="1" stop-color="#306998"/></linearGradient><linearGradient id="python-original-b" gradientUnits="userSpaceOnUse" x1="209.474" y1="1098.811" x2="173.62" y2="1149.537" gradientTransform="matrix(.563 0 0 -.568 -29.215 707.817)"><stop offset="0" stop-color="#FFD43B"/><stop offset="1" stop-color="#FFE873"/></linearGradient><path fill="url(#python-original-a)" d="M63.391 1.988c-4.222.02-8.252.379-11.8 1.007-10.45 1.846-12.346 5.71-12.346 12.837v9.411h24.693v3.137H29.977c-7.176 0-13.46 4.313-15.426 12.521-2.268 9.405-2.368 15.275 0 25.096 1.755 7.311 5.947 12.519 13.124 12.519h8.491V67.234c0-8.151 7.051-15.34 15.426-15.34h24.665c6.866 0 12.346-5.654 12.346-12.548V15.833c0-6.693-5.646-11.72-12.346-12.837-4.244-.706-8.645-1.027-12.866-1.008zM50.037 9.557c2.55 0 4.634 2.117 4.634 4.721 0 2.593-2.083 4.69-4.634 4.69-2.56 0-4.633-2.097-4.633-4.69-.001-2.604 2.073-4.721 4.633-4.721z" transform="translate(0 10.26)"/><path fill="url(#python-original-b)" d="M91.682 28.38v10.966c0 8.5-7.208 15.655-15.426 15.655H51.591c-6.756 0-12.346 5.783-12.346 12.549v23.515c0 6.691 5.818 10.628 12.346 12.547 7.816 2.297 15.312 2.713 24.665 0 6.216-1.801 12.346-5.423 12.346-12.547v-9.412H63.938v-3.138h37.012c7.176 0 9.852-5.005 12.348-12.519 2.578-7.735 2.467-15.174 0-25.096-1.774-7.145-5.161-12.521-12.348-12.521h-9.268zM77.809 87.927c2.561 0 4.634 2.097 4.634 4.692 0 2.602-2.074 4.719-4.634 4.719-2.55 0-4.633-2.117-4.633-4.719 0-2.595 2.083-4.692 4.633-4.692z" transform="translate(0 10.26)"/><radialGradient id="python-original-c" cx="1825.678" cy="444.45" r="26.743" gradientTransform="matrix(0 -.24 -1.055 0 532.979 557.576)" gradientUnits="userSpaceOnUse"><stop offset="0" stop-color="#B8B8B8" stop-opacity=".498"/><stop offset="1" stop-color="#7F7F7F" stop-opacity="0"/></radialGradient><path opacity=".444" fill="url(#python-original-c)" d="M97.309 119.597c0 3.543-14.816 6.416-33.091 6.416-18.276 0-33.092-2.873-33.092-6.416 0-3.544 14.815-6.417 33.092-6.417 18.275 0 33.091 2.872 33.091 6.417z"/></symbol>
<symbol id="icon-javascript" viewBox="0 0 128 128"><path fill="#F0DB4F" d="M1.408 1.408h125.184v125.185H1.408z"/><path fill="#323330" d="M116.347 96.736c-.917-5.711-4.641-10.508-15.672-14.981-3.832-1.761-8.104-3.022-9.377-5.926-.452-1.69-.512-2.642-.226-3.665.821-3.32 4.784-4.355 7.925-3.403 2.023.678 3.938 2.237 5.093 4.724 5.402-3.498 5.391-3.475 9.163-5.879-1.381-2.141-2.118-3.129-3.022-4.045-3.249-3.629-7.676-5.498-14.756-5.355l-3.688.477c-3.534.893-6.902 2.748-8.877 5.235-5.926 6.724-4.236 18.492 2.975 23.335 7.104 5.332 17.54 6.545 18.873 11.531 1.297 6.104-4.486 8.08-10.234 7.378-4.236-.881-6.592-3.034-9.139-6.949-4.688 2.713-4.688 2.713-9.508 5.485 1.143 2.499 2.344 3.63 4.26 5.795 9.068 9.198 31.76 8.746 35.83-5.176.165-.478 1.261-3.666.38-8.581zM69.462 58.943H57.753l-.048 30.272c0 6.438.333 12.34-.714 14.149-1.713 3.558-6.152 3.117-8.175 2.427-2.059-1.012-3.106-2.451-4.319-4.485-.333-.584-.583-1.036-.667-1.071l-9.52 5.83c1.583 3.249 3.915 6.069 6.902 7.901 4.462 2.678 10.459 3.499 16.731 2.059 4.082-1.189 7.604-3.652 9.448-7.401 2.666-4.915 2.094-10.864 2.07-17.444.06-10.735.001-21.468.001-32.237z"/></symbol>
<symbol id="icon-react" viewBox="0 0 128 128"><g fill="#61DAFB"><circle cx="64" cy="64" r="11.4"/><path d="M107.3 45.2c-2.2-.8-4.5-1.6-6.9-2.3.6-2.4 1.1-4.8 1.5-7.1 2.1-13.2-.2-22.5-6.6-26.1-1.9-1.1-4-1.6-6.4-1.6-7 0-15.9 5.2-24.9 13.9-9-8.7-17.9-13.9-24.9-13.9-2.4 0-4.5.5-6.4 1.6-6.4 3.7-8.7 13-6.6 26.1.4 2.3.9 4.7 1.5 7.1-2.4.7-4.7 1.4-6.9 2.3C8.2 50 1.4 56.6 1.4 64s6.9 14 19.3 18.8c2.2.8 4.5 1.6 6.9 2.3-.6 2.4-1.1 4.8-1.5 7.1-2.1 13.2.2 22.5 6.6 26.1 1.9 1.1 4 1.6 6.4 1.6 7.1 0 16-5.2 24.9-13.9 9 8.7 17.9 13.9 24.9 13.9 2.4 0 4.5-.5 6.4-1.6 6.4-3.7 8.7-13 6.6-26.1-.4-2.3-.9-4.7-1.5-7.1 2.4-.7 4.7-1.4 6.9-2.3 12.5-4.8 19.3-11.4 19.3-18.8s-6.8-14-19.3-18.8zM92.5 14.7c4.1 2.4 5.5 9.8 3.8 20.3-.3 2.1-.8 4.3-1.4 6.6-5.2-1.2-10.7-2-16.5-2.5-3.4-4.8-6.9-9.1-10.4-13 7.4-7.3 14.9-12.3 21-12.3 1.3 0 2.5.3 3.5.9zM81.3 74c-1.8 3.2-3.9 6.4-6.1 9.6-3.7.3-7.4.4-11.2.4-3.9 0-7.6-.1-11.2-.4-2.2-3.2-4.2-6.4-6-9.6-1.9-3.3-3.7-6.7-5.3-10 1.6-3.3 3.4-6.7 5.3-10 1.8-3.2 3.9-6.4 6.1-9.6 3.7-.3 7.4-.4 11.2-.4 3.9 0 7.6.1 11.2.4 2.2 3.2 4.2 6.4 6 9.6 1.9 3.3 3.7 6.7 5.3 10-1.7 3.3-3.4 6.6-5.3 10zm8.3-3.3c1.5 3.5 2.7 6.9 3.8 10.3-3.4.8-7 1.4-10.8 1.9 1.2-1.9 2.5-3.9 3.6-6 1.2-2.1 2.3-4.2 3.4-6.2zM64 97.8c-2.4-2.6-4.7-5.4-6.9-8.3 2.3.1 4.6.2 6.9.2 2.3 0 4.6-.1 6.9-.2-2.2 2.9-4.5 5.7-6.9 8.3zm-18.6-15c-3.8-.5-7.4-1.1-10.8-1.9 1.1-3.3 2.3-6.8 3.8-10.3 1.1 2 2.2 4.1 3.4 6.1 1.2 2.2 2.4 4.1 3.6 6.1zm-7-25.5c-1.5-3.5-2.7-6.9-3.8-10.3 3.4-.8 7-1.4 10.8-1.9-1.2 1.9-2.5 3.9-3.6 6-1.2 2.1-2.3 4.2-3.4 6.2zM64 30.2c2.4 2.6 4.7 5.4 6.9 8.3-2.3-.1-4.6-.2-6.9-.2-2.3 0-4.6.1-6.9.2 2.2-2.9 4.5-5.7 6.9-8.3zm22.2 21l-3.6-6c3.8.5 7.4 1.1 10.8 1.9-1.1 3.3-2.3 6.8-3.8 10.3-1.1-2.1-2.2-4.2-3.4-6.2zM31.7 35c-1.7-10.5-.3-17.9 3.8-20.3 1-.6 2.2-.9 3.5-.9 6 0 13.5 4.9 21 12.3-3.5 3.8-7 8.2-10.4 13-5.8.5-11.3 1.4-16.5 2.5-.6-2.3-1-4.5-1.4-6.6zM7 64c0-4.7 5.7-9.7 15.7-13.4 2-.8 4.2-1.5 6.4-2.1 1.6 5 3.6 10.3 6 15.6-2.4 5.3-4.5 10.5-6 15.5C15.3 75.6 7 69.6 7 64zm28.5 49.3c-4.1-2.4-5.5-9.8-3.8-20.3.3-2.1.8-4.3 1.4-6.6 5.2 1.2 10.7 2 16.5 2.5 3.4 4.8 6.9 9.1 10.4 13-7.4 7.3-14.9 12.3-21 12.3-1.3 0-2.5-.3-3.5-.9zM96.3 93c1.7 10.5.3 17.9-3.8 20.3-1 .6-2.2.9-3.5.9-6 0-13.5-4.9-21-12.3 3.5-3.8 7-8.2 10.4-13 5.8-.5 11.3-1.4 16.5-2.5.6 2.3 1 4.5 1.4 6.6zm9-15.6c-2 .8-4.2 1.5-6.4 2.1-1.6-5-3.6-10.3-6-15.6 2.4-5.3 4.5-10.5 6-15.5 13.8 4 22.1 10 22.1 15.6 0 4.7-5.8 9.7-15.7 13.4z"/></g></symbol>
<symbol id="icon-html5" viewBox="0 0 128 128"><path fill="#E44D26" d="M19.037 113.876L9.032 1.661h109.936l-10.016 112.198-45.019 12.48z"/><path fill="#F16529" d="M64 116.8l36.378-10.086 8.559-95.878H64z"/><path fill="#EBEBEB" d="M64 52.455H45.788L44.53 38.361H64V24.599H29.489l.33 3.692 3.382 37.927H64zm0 35.743l-.061.017-15.327-4.14-.979-10.975H33.816l1.928 21.609 28.193 7.826.063-.017z"/><path fill="#fff" d="M63.952 52.455v13.763h16.947l-1.597 17.849-15.35 4.143v14.319l28.215-7.82.207-2.325 3.234-36.233.335-3.696h-3.708zm0-27.856v13.762h33.244l.276-3.092.628-6.978.329-3.692z"/></symbol>
<symbol id="icon-css3" viewBox="0 0 128 128"><path fill="#1572B6" d="M18.814 114.123L8.76 1.352h110.48l-10.064 112.754-45.243 12.543-45.119-12.526z"/><path fill="#33A9DC" d="M64.001 117.062l36.559-10.136 8.601-96.354h-45.16v106.49z"/><path fill="#fff" d="M64.001 51.429h18.302l1.264-14.163H64.001V23.435h34.682l-.332 3.711-3.4 38.114h-30.95V51.429z"/><path fill="#EBEBEB" d="M64.083 87.349l-.061.018-15.403-4.159-.985-11.031H33.752l1.937 21.717 28.331 7.863.063-.018v-14.39z"/><path fill="#fff" d="M81.127 64.675l-1.666 18.522-15.426 4.164v14.39l28.354-7.858.208-2.337 2.406-26.881H81.127z"/><path fill="#EBEBEB" d="M64.048 23.435v13.831H30.64l-.277-3.108-.63-7.012-.331-3.711h34.646zm-.047 27.996v13.831H48.792l-.277-3.108-.631-7.012-.33-3.711h16.447z"/></symbol>
<symbol id="icon-fastapi" viewBox="0 0 128 128"><path d="M56.813 127.586c-1.903-.227-3.899-.52-4.434-.652a48.078 48.078 0 00-2.375-.5 36.042 36.042 0 01-2.703-.633c-4.145-1.188-4.442-1.285-7.567-2.563-2.875-1.172-8.172-3.91-9.984-5.156-.496-.344-.96-.621-1.031-.621-.07 0-1.23-.816-2.578-1.813-8.57-6.343-15.004-14.043-19.653-23.527-.8-1.629-1.453-3.074-1.453-3.21 0-.134-.144-.505-.32-.817-.363-.649-.88-2.047-1.297-3.492a20.047 20.047 0 00-.625-1.813c-.195-.46-.352-1.02-.352-1.246 0-.227-.195-.965-.433-1.645-.238-.675-.43-1.472-.43-1.77 0-.296-.187-1.32-.418-2.276C.598 73.492 0 67.379 0 63.953c0-3.422.598-9.535 1.16-11.894.23-.957.418-2 .418-2.32 0-.321.145-.95.32-1.4.18-.448.41-1.253.516-1.788.11-.535.36-1.457.563-2.055l.59-1.726c.433-1.293.835-2.387 1.027-2.813.11-.238.539-1.21.957-2.16.676-1.535 2.125-4.43 2.972-5.945.309-.555.426-.739 2.098-3.352 2.649-4.148 7.176-9.309 11.39-12.988 1.485-1.297 6.446-5.063 6.669-5.063.062 0 .53-.281 1.043-.625 1.347-.902 2.668-1.668 4.39-2.531a53.06 53.06 0 001.836-.953c.285-.164.82-.41 3.567-1.64.605-.27 1.257-.516 3.136-1.173.414-.144 1.246-.449 1.84-.672.598-.222 1.301-.406 1.563-.406.258 0 .937-.18 1.508-.402.57-.223 1.605-.477 2.304-.563.696-.082 1.621-.277 2.055-.43.43-.148 1.61-.34 2.621-.425a72.572 72.572 0 003.941-.465c2.688-.394 8.532-.394 11.192 0a75.02 75.02 0 003.781.445c.953.079 2.168.278 2.703.442.535.16 1.461.36 2.055.433.594.079 1.594.325 2.222.551.63.23 1.344.414 1.59.414s.754.137 1.125.309c.375.168 1.168.449 1.766.625.594.18 1.613.535 2.27.797.652.261 1.527.605 1.945.761.77.29 6.46 3.137 7.234 3.622 6.281 3.917 9.512 6.476 13.856 10.964 5.238 5.414 8.715 10.57 12.254 18.16.25.536.632 1.329.851 1.758.215.434.395.942.395 1.13 0 .19.18.76.402 1.269.602 1.383 1.117 2.957 1.36 4.16.12.59.343 1.32.495 1.621.153.3.332 1.063.403 1.688.07.624.277 1.648.453 2.269 1.02 3.531 1.527 13.934.91 18.535-.183 1.367-.39 3.02-.46 3.672-.118 1.117-.708 4.004-1.212 5.945l-.52 2.055c-.98 3.957-3.402 9.594-6.359 14.809-1.172 2.07-5.101 7.668-5.843 8.324-.067.058-.399.45-.735.863-.336.418-1.414 1.586-2.39 2.594-4.301 4.441-7.77 7.187-13.86 10.969-.722.449-6.847 3.441-7.992 3.906-.594.238-1.586.64-2.203.89-.613.247-1.297.454-1.512.458-.215.003-.781.195-1.258.425-.476.23-1.082.422-1.351.426-.266.004-1.043.192-1.727.418-.683.23-1.633.477-2.11.55-.476.075-1.495.278-2.269.45-.773.172-3.11.508-5.187.746a59.06 59.06 0 01-13.945-.031zm4.703-12.5c.3-.234.609-.7.691-1.027.18-.723 29.234-58.97 29.781-59.7.461-.617.504-1.605.082-1.953-.222-.187-3.004-.246-10.43-.234-5.57.012-10.253.016-10.406.012-.226-.008-.273-3.73-.25-19.672.016-10.817-.035-19.766-.113-19.89-.078-.126-.383-.227-.68-.227-.418 0-.613.18-.87.808-.485 1.168-1.825 3.82-8.348 16.485a3554.569 3554.569 0 00-4.055 7.89c-1.156 2.262-2.98 5.813-4.047 7.89a8751.248 8751.248 0 00-8.598 16.759c-4.933 9.636-5.53 10.785-5.742 11.039-.41.496-.633 1.64-.402 2.07.21.394.629.41 11.043.394 5.953-.007 10.863.024 10.914.07.137.141.086 37.31-.055 38.196-.093.582-.031.89.235 1.156.46.461.586.457 1.25-.066zm0 0" fill="#049688"/></symbol>
<symbol id="icon-mysql" viewBox="0 0 128 128"><path fill="#00618A" d="M117.688 98.242c-6.973-.191-12.297.461-16.852 2.379-1.293.547-3.355.559-3.566 2.18.711.746.82 1.859 1.387 2.777 1.086 1.754 2.922 4.113 4.559 5.352 1.789 1.348 3.633 2.793 5.551 3.961 3.414 2.082 7.223 3.27 10.504 5.352 1.938 1.23 3.859 2.777 5.75 4.164.934.684 1.563 1.75 2.773 2.18v-.195c-.637-.812-.801-1.93-1.387-2.777l-2.578-2.578c-2.52-3.344-5.719-6.281-9.117-8.719-2.711-1.949-8.781-4.578-9.91-7.73l-.199-.199c1.922-.219 4.172-.914 5.949-1.391 2.98-.797 5.645-.59 8.719-1.387l4.164-1.187v-.793c-1.555-1.594-2.664-3.707-4.359-5.152-4.441-3.781-9.285-7.555-14.273-10.703-2.766-1.746-6.184-2.883-9.117-4.363-.988-.496-2.719-.758-3.371-1.586-1.539-1.961-2.379-4.449-3.566-6.738-2.488-4.793-4.93-10.023-7.137-15.066-1.504-3.437-2.484-6.828-4.359-9.91-9-14.797-18.687-23.73-33.695-32.508-3.195-1.867-7.039-2.605-11.102-3.57l-6.543-.395c-1.332-.555-2.715-2.184-3.965-2.977C16.977 3.52 4.223-3.312.539 5.672-1.785 11.34 4.016 16.871 6.09 19.746c1.457 2.012 3.32 4.273 4.359 6.539.688 1.492.805 2.984 1.391 4.559 1.438 3.883 2.695 8.109 4.559 11.695.941 1.816 1.98 3.727 3.172 5.352.727.996 1.98 1.438 2.18 2.973-1.227 1.715-1.297 4.375-1.984 6.543-3.098 9.77-1.926 21.91 2.578 29.137 1.383 2.223 4.641 6.98 9.117 5.156 3.918-1.598 3.043-6.539 4.164-10.902.254-.988.098-1.715.594-2.379v.199l3.57 7.133c2.641 4.254 7.324 8.699 11.297 11.699 2.059 1.555 3.68 4.242 6.344 5.152v-.199h-.199c-.516-.805-1.324-1.137-1.98-1.781-1.551-1.523-3.277-3.414-4.559-5.156-3.613-4.902-6.805-10.27-9.711-15.855-1.391-2.668-2.598-5.609-3.77-8.324-.453-1.047-.445-2.633-1.387-3.172-1.281 1.988-3.172 3.598-4.164 5.945-1.582 3.754-1.789 8.336-2.375 13.082-.348.125-.195.039-.398.199-2.762-.668-3.73-3.508-4.758-5.949-2.594-6.164-3.078-16.09-.793-23.191.59-1.836 3.262-7.617 2.18-9.316-.516-1.691-2.219-2.672-3.172-3.965-1.18-1.598-2.355-3.703-3.172-5.551-2.125-4.805-3.113-10.203-5.352-15.062-1.07-2.324-2.875-4.676-4.359-6.738-1.645-2.289-3.484-3.977-4.758-6.742-.453-.984-1.066-2.559-.398-3.566.215-.684.516-.969 1.191-1.191 1.148-.887 4.352.297 5.547.793 3.18 1.32 5.832 2.578 8.527 4.363 1.289.855 2.598 2.512 4.16 2.973h1.785c2.789.641 5.914.195 8.523.988 4.609 1.402 8.738 3.582 12.488 5.949 11.422 7.215 20.766 17.48 27.156 29.734 1.027 1.973 1.473 3.852 2.379 5.945 1.824 4.219 4.125 8.559 5.941 12.688 1.816 4.113 3.582 8.27 6.148 11.695 1.348 1.801 6.551 2.766 8.918 3.766 1.66.699 4.379 1.43 5.949 2.379 3 1.809 5.906 3.965 8.723 5.945 1.402.992 5.73 3.168 5.945 4.957zm-88.605-75.52c-1.453-.027-2.48.156-3.566.395v.199h.195c.695 1.422 1.918 2.34 2.777 3.566l1.98 4.164.199-.195c1.227-.867 1.789-2.25 1.781-4.363-.492-.52-.562-1.164-.992-1.785-.562-.824-1.66-1.289-2.375-1.98zm0 0"/></symbol>
<symbol id="icon-git" viewBox="0 0 128 128"><path fill="#F34F29" d="M124.737 58.378L69.621 3.264c-3.172-3.174-8.32-3.174-11.497 0L46.68 14.71l14.518 14.518c3.375-1.139 7.243-.375 9.932 2.314 2.703 2.706 3.461 6.607 2.294 9.993l13.992 13.993c3.385-1.167 7.292-.413 9.994 2.295 3.78 3.777 3.78 9.9 0 13.679a9.673 9.673 0 01-13.683 0 9.677 9.677 0 01-2.105-10.521L68.574 47.933l-.002 34.341a9.708 9.708 0 012.559 1.828c3.778 3.777 3.778 9.898 0 13.683-3.779 3.777-9.904 3.777-13.679 0-3.778-3.784-3.778-9.905 0-13.683a9.65 9.65 0 013.167-2.11V47.333a9.581 9.581 0 01-3.167-2.111c-2.862-2.86-3.551-7.06-2.083-10.576L41.056 20.333 3.264 58.123a8.133 8.133 0 000 11.5l55.117 55.114c3.174 3.174 8.32 3.174 11.499 0l54.858-54.858a8.135 8.135 0 00-.001-11.501z"/></symbol>
<symbol id="icon-github" viewBox="0 0 128 128"><g fill="#181616"><path fill-rule="evenodd" clip-rule="evenodd" d="M64 5.103c-33.347 0-60.388 27.035-60.388 60.388 0 26.682 17.303 49.317 41.297 57.303 3.017.56 4.125-1.31 4.125-2.905 0-1.44-.056-6.197-.082-11.243-16.8 3.653-20.345-7.125-20.345-7.125-2.747-6.98-6.705-8.836-6.705-8.836-5.48-3.748.413-3.67.413-3.67 6.063.425 9.257 6.223 9.257 6.223 5.386 9.23 14.127 6.562 17.573 5.02.542-3.903 2.107-6.568 3.834-8.076-13.413-1.525-27.514-6.704-27.514-29.843 0-6.593 2.36-11.98 6.223-16.21-.628-1.52-2.695-7.662.584-15.98 0 0 5.07-1.623 16.61 6.19C53.7 35 58.867 34.327 64 34.304c5.13.023 10.3.694 15.127 2.033 11.526-7.813 16.59-6.19 16.59-6.19 3.287 8.317 1.22 14.46.593 15.98 3.872 4.23 6.215 9.617 6.215 16.21 0 23.194-14.127 28.3-27.574 29.796 2.167 1.874 4.097 5.55 4.097 11.183 0 8.08-.07 14.583-.07 16.572 0 1.607 1.088 3.49 4.148 2.897 23.98-7.994 41.263-30.622 41.263-57.294C124.388 32.14 97.35 5.104 64 5.104z"/><path d="M26.484 91.806c-.133.3-.605.39-1.035.185-.44-.196-.685-.605-.543-.906.13-.31.603-.395 1.04-.188.44.197.69.61.537.91zm2.446 2.729c-.287.267-.85.143-1.232-.28-.396-.42-.47-.983-.177-1.254.298-.266.844-.14 1.24.28.394.426.472.984.17 1.255zM31.312 98.012c-.37.258-.976.017-1.35-.52-.37-.538-.37-1.183.01-1.44.373-.258.97-.025 1.35.507.368.545.368 1.19-.01 1.452zm3.261 3.361c-.33.365-1.036.267-1.552-.23-.527-.487-.674-1.18-.343-1.544.336-.366 1.045-.264 1.564.23.527.486.686 1.18.333 1.543zm4.5 1.951c-.147.473-.825.688-1.51.486-.683-.207-1.13-.76-.99-1.238.14-.477.823-.7 1.512-.485.683.206 1.13.756.988 1.237zm4.943.361c.017.498-.563.91-1.28.92-.723.017-1.308-.387-1.315-.877 0-.503.568-.91 1.29-.924.717-.013 1.306.387 1.306.88zm4.598-.782c.086.485-.413.984-1.126 1.117-.7.13-1.35-.172-1.44-.653-.086-.498.422-.997 1.122-1.126.714-.123 1.354.17 1.444.663zm0 0"/></g></symbol>
<symbol id="icon-java" viewBox="0 0 128 128"><path fill="#0074BD" d="M47.617 98.12s-4.767 2.774 3.397 3.71c9.892 1.13 14.947.968 25.845-1.092 0 0 2.871 1.795 6.873 3.351-24.439 10.47-55.308-.607-36.115-5.969zm-2.988-13.665s-5.348 3.959 2.823 4.805c10.567 1.091 18.91 1.18 33.354-1.6 0 0 1.993 2.025 5.132 3.131-29.542 8.64-62.446.68-41.309-6.336z"/><path fill="#EA2D2E" d="M69.802 61.271c6.025 6.935-1.58 13.17-1.58 13.17s15.289-7.891 8.269-17.777c-6.559-9.215-11.587-13.792 15.635-29.58 0 .001-42.731 10.67-22.324 34.187z"/><path fill="#0074BD" d="M102.123 108.229s3.529 2.91-3.888 5.159c-14.102 4.272-58.706 5.56-71.094.171-4.451-1.938 3.899-4.625 6.526-5.192 2.739-.593 4.303-.485 4.303-.485-4.953-3.487-32.013 6.85-13.743 9.815 49.821 8.076 90.817-3.637 77.896-9.468zM49.912 70.294s-22.686 5.389-8.033 7.348c6.188.828 18.518.638 30.011-.326 9.39-.789 18.813-2.474 18.813-2.474s-3.308 1.419-5.704 3.053c-23.042 6.061-67.544 3.238-54.731-2.958 10.832-5.239 19.644-4.643 19.644-4.643zm40.697 22.747c23.421-12.167 12.591-23.86 5.032-22.285-1.848.385-2.677.72-2.677.72s.688-1.079 2-1.543c14.953-5.255 26.451 15.503-4.823 23.725 0-.002.359-.327.468-.617z"/><path fill="#EA2D2E" d="M76.491 1.587S89.459 14.563 64.188 34.51c-20.266 16.006-4.621 25.13-.007 35.559-11.831-10.673-20.509-20.07-14.688-28.815C58.041 28.42 81.722 22.195 76.491 1.587z"/><path fill="#0074BD" d="M52.214 126.021c22.476 1.437 57-.8 57.817-11.436 0 0-1.571 4.032-18.577 7.231-19.186 3.612-42.854 3.191-56.887.874 0 .001 2.875 2.381 17.647 3.331z"/></symbol>
<symbol id="icon-streamlit" viewBox="0 0 128 128"><path     d="M 63.992579,72.521325 41.553732,60.660321 2.6034211,40.074058 c -0.035557,-0.03555 -0.1066637,-0.03555 -0.1422174,-0.03555 -1.4221913,-0.675528 -2.87993927,0.746641 -2.3466152,2.168863 l 19.8466965,50.619383 0.0035,0.0109 c 0.02134,0.04994 0.03912,0.09944 0.06046,0.149334 0.814189,1.887956 2.591938,3.054 4.526143,3.512657 0.163538,0.03587 0.280527,0.06782 0.476917,0.107073 0.195451,0.04351 0.46881,0.10282 0.703471,0.120745 0.03912,0.0033 0.07467,0.0033 0.113789,0.0065 h 0.02846 c 0.02841,0.0044 0.05687,0.0044 0.08533,0.0076 h 0.03908 c 0.02491,0.0033 0.05333,0.0033 0.07824,0.0033 h 0.04621 c 0.02846,0.0044 0.05687,0.0044 0.08533,0.0044 v 0 c 25.135232,2.740415 50.493562,2.740415 75.628755,0 v 0 c 0.30207,0 0.59732,-0.0145 0.88147,-0.04263 0.0926,-0.0109 0.18133,-0.02137 0.27051,-0.03195 0.0107,-0.0044 0.0247,-0.0044 0.0354,-0.0076 0.0606,-0.0076 0.12074,-0.01788 0.18133,-0.02857 0.0887,-0.0109 0.17791,-0.02813 0.26666,-0.04612 0.17791,-0.03925 0.25855,-0.06738 0.50004,-0.1506 0.24106,-0.08276 0.64169,-0.22784 0.89214,-0.348585 0.25087,-0.120746 0.42452,-0.236792 0.63444,-0.368201 0.2594,-0.163837 0.50644,-0.331086 0.75689,-0.518812 0.10794,-0.08276 0.18175,-0.135683 0.25983,-0.210351 l -0.0427,-0.02475 z"     fill="#ff4b4b"     id="path14"     style="stroke-width:0.426657" />  <path     d="m 125.44606,40.07457 h -0.0354 L 86.445785,60.660834 108.10586,92.919776 127.90272,42.207855 v -0.07109 c 0.49791,-1.493346 -1.0308,-2.844391 -2.45668,-2.062205"     fill="#7d353b"     id="path16"     style="stroke-width:0.426657" />  <path     d="m 66.069117,30.286053 c -0.995816,-1.454191 -3.164512,-1.454191 -4.124488,0 L 41.553817,60.660572 63.992579,72.521761 106.51616,94.995458 c 0.26709,-0.261532 0.48127,-0.516249 0.7074,-0.785468 0.31999,-0.394664 0.61865,-0.817481 0.8819,-1.290639 L 86.445379,60.660572 Z"     fill="#bd4043"     id="path18"     style="stroke-width:0.426657" /></symbol>
<symbol id="icon-jenkins" viewBox="0 0 128 128"><path fill="#d33833" d="M108.893 61.68c0 25.36-20.099 45.918-44.892 45.918-24.794 0-44.893-20.558-44.893-45.918s20.1-45.92 44.893-45.92 44.892 20.56 44.892 45.92"/><path fill="#ef3d3a" d="M20.938 73.052S17.688 25.167 61.81 23.8l-3.078-5.13-23.943 8.037-6.84 7.867-5.986 11.459-3.42 13.339 1.025 8.893"/><path fill="#231f20" d="M33.253 30.355c-7.876 8.06-12.75 19.186-12.75 31.496 0 12.307 4.874 23.436 12.75 31.494 7.88 8.057 18.74 13.03 30.747 13.03 12.007 0 22.867-4.973 30.747-13.03 7.876-8.058 12.751-19.187 12.751-31.494 0-12.31-4.875-23.437-12.751-31.496C86.867 22.3 76.007 17.327 64 17.326c-12.006.001-22.867 4.973-30.747 13.03zM31.26 95.294c-8.37-8.561-13.546-20.392-13.546-33.443 0-13.053 5.176-24.883 13.546-33.444 8.37-8.563 19.954-13.87 32.74-13.869 12.788-.002 24.374 5.306 32.741 13.869 8.372 8.561 13.548 20.392 13.547 33.444 0 13.05-5.175 24.882-13.547 33.443-8.367 8.562-19.953 13.87-32.74 13.87-12.787 0-24.372-5.308-32.74-13.87"/><path fill="#f0d6b7" d="m82.898 61.934-6.841 1.026-9.235 1.026-5.986.171-5.815-.17-4.446-1.369-3.934-4.275-3.078-8.722-.684-1.881-4.105-1.368-2.394-3.934-1.71-5.644 1.881-4.96 4.446-1.538 3.592 1.71 1.71 3.762 2.053-.342.683-.855-.683-3.933-.172-4.96 1.026-6.84-.04-3.908 3.119-4.985 5.472-3.934 9.578-4.104 10.603 1.539 9.235 6.67 4.276 6.84 2.736 4.96.684 12.313-2.053 10.604-3.762 9.405-3.591 4.96"/><path fill="#335061" d="m88.027 56.975-4.103 4.105v15.904l-3.58 14.66-1.721.047 1.367 16.418 6.498-.855L84.95 91.52l-2.902.079 7.863-.422s3.932-9.919 3.932-10.432c0-.513 3.422-14.365 3.422-14.365l-7.698-8.037-1.539-1.37zm-41.215 2.564-4.275 1.711-13.682 9.406.856 2.737 3.934 11.628 1.709 19.327 1.197 2.05 17.101 5.817 1.028-1.2-2.053-14.365v-4.103l24.455-1.027 1.88-1.026-14.876-7.012 2.736-5.3-3.933 1.367-1.54-1.881-2.052-8.893-1.711-.513-3.762-1.198-3.25-2.906-3.761-4.619z"/><path fill="#6d6b6d" d="m36.551 31.835 4.446-1.54 3.592 1.711 1.71 3.762 2.053-.342.513-2.052-1.026-3.933 1.026-9.407-.856-5.13 3.079-3.592 6.67-5.301-1.882-2.565-9.406 4.617-3.933 3.079-2.224 4.788-3.42 4.617-1.026 5.473.684 5.815"/><path fill="#dcd9d8" d="M59.445 4.021c-1.172-.012-2.543.108-2.543.108L45.787 8.406l-4.277 4.276-1.881 3.42 3.934-.342s2.565-6.328 12.826-9.406c6.413-1.924 5.01-2.312 3.056-2.333zM48.01 14.904l-9.406 2.223-2.737 8.893.684 5.814 1.88-1.195s-3.591-11.974 10.09-13.684l-.511-2.05z"/><path fill="#f7e4cd" d="M69.986.475a11.318 11.318 0 0 0-3.85.748c-10.26 3.933-17.785 11.115-17.615 15.732.292 7.864.172 7.87.172 7.87S51.601 9.774 66.31 6.866c12.108-2.393 18.468.512 20.863 3.248 0 0-8.25-9.82-17.186-9.64zm18.328 11.35c-.545-.003-4.913.108-5.074 4.277 0 0 0 .683.342 1.367 0 0 3.934-4.447 6.328-2.053l-1.539-3.59s-.02-.002-.057-.002zm-25.185 2.01c-.84.02-1.876.371-3.149 1.24-3.762 2.565-3.42 6.157-2.736 6.841.684.684.499 2.06 1.02 1.115.52-.945.349-4.022 2.23-4.877 1.881-.855 4.966-1.812 6.16-.222 0 0-.522-4.166-3.525-4.096zm26.437 10.476s-2.818.594-3.078 3.078c-.26 2.483 3.079.512 3.592.341l-.514-3.42zm-20.693.171s-3.762.513-3.762 2.907 4.276 2.223 5.473 1.197l-1.711-4.104zM38.432 30.64 34.5 34.742l.684 5.131 2.05 5.3 2.225.686c-3.25-3.933-1.711-6.671-1.027-10.433.683-3.763 7.183.172 7.183.172l-.172-2.567-2.564-2.05-4.447-.342zm38.609 7.847c-1.126-.05-1.556 3.635-1.648 4.586.31-.92 3.171-2.77 3.171-2.77s0-1.396-1.396-1.794a.549.549 0 0 0-.127-.022zm-1.648 4.586a.394.394 0 0 0-.02.221s.006-.08.02-.22zm-29.248 1.301-2.24 2.17.513 7.525 5.473 8.551s6.143 1.386 5.472.856c-7.353-5.815-7.866-16.59-8.037-17.788-.17-1.196-1.181-1.314-1.181-1.314zm19.244 2.549c-.675.01-1.122.228-1.248.396-.427.57.457 3.672.457 3.672l.855.172c-.17-3.421 1.881-3.764 1.881-3.764-.758-.364-1.42-.484-1.945-.476z"/><path fill="#49728b" d="m45.615 59.37-16.76 11.286 1.881 5.303 4.448 19.152.17 10.092 2.394.854c3.42-8.21-3.248-34.717-3.248-34.717l16.074-7.182-4.959-4.789zm6.614 19.448-.458 1.073s-.341 3.078-.341 3.933c0 .856.341 8.04.341 8.04h2.737V81.601l-2.28-2.784zm.056 14.584-7.695.342 2.222 1.54 5.473.855v-2.737zm35.742-36.427-3.248 3.591L96.75 69.46l.342-4.104-9.065-8.38zm-3.42 33.52-5.984 1.196.854 4.79c2.223 1.026 5.986-1.711 5.986-1.711l-.856-4.276z"/><path fill="#fff" d="M50.574 62.62v1.538l2.174 2.395 6.84 3.078.172-5.129-4.739-.516-4.447-1.367zm50.059 24.284-5.473 1.711-5.25 2.563-2.789-.51-2.172.853 1.832 14.368 6.668-1.883 12.656-.684 1.881-5.814-3.42-10.09-3.933-.514zm-22.01 4.787-9.97.002-16.026.854.291 7.869 1.762 10.6 3.54 14.369 7.866 1.709 12.998-1.026.17-2.566-1.54-13.852.909-17.959zm1.317-1.366-3.763-9.577-3.934-5.644s.855-2.394 2.053-2.394h3.933l3.762 1.368-.341 6.328-1.71 9.92" /><path fill="#dcd9d8" d="m52.115 65.014-.513.685 2.908 2.051 4.787 1.025-.17-2.05c-1.71.513-7.012-1.711-7.012-1.711zm23.77 7.353-3.932.512 6.67 15.734 1.367.172.684-1.71s-4.79-9.236-4.79-10.604c0 0 .856-2.052 2.053-1.54 1.198.514 3.764 1.882 3.764 1.882v-3.249l-5.816-1.197zm16.248 17.957-2.223.854 1.881 9.406c-.684-.171-5.13 1.883-5.13 1.883l.51 2.736 1.884-.685 5.984-.854 1.711 2.223 5.13.17 3.079-.684 2.736-4.103-.172-3.08-1.88-5.473c.513 4.104-1.54 8.039-1.54 8.039-.855 0-10.431-.514-10.431-.514 0-1.026-1.54-9.918-1.54-9.918zm-13.17.17-2.565 1.027s-.854 17.787 1.711 30.442c0 0-5.13 3.249-12.656 4.103l14.365-.513 1.711-1.026-2.052-28.047-.514-5.986zm4.47 18.297c-.736.004-1.83.526-2.603.475-.113 2.701.266 7.033.393 9.867 1.796.002 2.565-.392 3.906-.844.151-3.335-1.057-6.422-1.404-9.467a1.105 1.105 0 0 0-.291-.031z"/><path fill="#d33833" d="M84.777 63.818c-2.192.102-5.148 2.897-6.525 3.387.178.512.47.917.492 1.57.965-.238 2.14-.075 2.977.336-.968.108-2.038.102-2.678.563-.235.677.055 1.6-.102 2.54 2.296.648 4.919.994 7.82 1.079.566-.733.758-2.133.69-3.518-.08-1.67-.519-5.104-1.55-5.705-.34-.197-.718-.27-1.124-.252zm-22.535.748c-2.324.05-2.082 4.108-1.969 6.592.095 2.098 1.188 4.318 1.66 5.713.224.65.274 1.342.83 1.47.984.23 4.23-1.067 5.155-1.571 1.955-1.066 3.473-2.76 5.133-3.897l.062-1.658c-.998-.498-2.15-.852-3.617-.916.995-.5 2.457-.493 3.363-1.088l.026-.662c-1.654-.127-2.285-.864-3.375-1.461-1.784-.974-4.464-2.037-6.768-2.477a2.4 2.4 0 0 0-.5-.045zm13.43 3.457c-.442.004-.969.171-1.57.573-.114 1.259.18 1.67.433 3.115 3.493 1.093 3.525-3.704 1.137-3.688z"/><path fill="#ef3d3a" d="m84.557 62.621-6.498 3.762-.344 1.88v3.762l2.394.856s-1.197-1.71-.341-2.223c.855-.513 1.711 0 2.224-.855.513-.856 0-1.369.17-2.395.171-1.026 1.026-1.196 1.881-1.367.855-.17 3.25-.513 3.592.342l-1.026-3.078zm-21.536 1.03c-.847-.018-1.619.122-2.185.507-4.021 2.735-.78 9.056 1.19 12.774a551.56 551.56 0 0 0-.538-6.409c-.362-3.98.957-3.285 4.408-3.285.528 0 3.245.628 3.44 1.026.933 1.905-1.56 1.481 1.074 2.918 2.224 1.212 6.152-.737 5.254-3.432-.503-.6-2.62-.187-3.379-.58l-4.008-2.078c-1.168-.607-3.392-1.403-5.256-1.442Zm-.996 13.28c.042.532.086 1.063.127 1.594l.612-.183c-.204-.405-.46-.883-.739-1.41z"/><path fill="#231f20" d="M67.565.006c-3.59.068-7.101.665-10.027 1.742-2.175.8-4.282 1.516-6.192 2.638-5.111 3-10.537 5.008-12.052 11.047-3.734 1.672-4.86 6.451-4.672 11.997.036 1.081.623 2.432.42 3.449-.104.516-.804 1.177-.944 1.513-1.79 4.267-.355 9.876 1.713 12.909 1.25 1.832 3.32 3.457 6.05 3.888.109 1.635.502 3.042 1.257 4.699.478 1.048 2.263 2.932 1.606 4.269-.33.674-3.237 2.137-4.201 2.716-3.255 1.952-5.614 3.149-8.619 5.312-1.944 1.4-4.985 1.58-4.505 4.808.323 2.178 1.563 4.878 2.272 7.062.768 2.357 1.868 4.516 2.5 6.962 1.405 5.451 1.698 10.587 2.04 15.911.134 2.085-.088 4.291.453 5.442.558 1.19 2.626 1.57 4.12 2.264 4.315 1.995 8.893 5.042 14.552 4.437 1.349 4.536 2.624 9.367 4.243 13.34 5.803 2.086 14.964 1.76 20.997 1.035 1.834-.222 3.769-1.127 4.2-2.717-.129-.98-.272-1.95-.21-3.109 1.886-.39 4.453-.712 4.868-2.8.582-2.928-1.849-7.123-1.038-10.336 1.092-.354 2.258-.631 2.084-2.355 1.84-.958 4.023-1.172 6.353-1.082.3.58.727 1.138 1.111 1.457 3.264.656 6.425.71 9.135-.174 3.067-1.002 4.53-7.275 3.829-10.26-.498-2.115-1.624-5.58-2.584-7.628-2.601-5.56-10.353-2.07-14.502-.008 2.013-5.295 3.744-10.785 5.52-16.725.53-1.78 1.578-4.303 1.343-6.147-.22-1.734-2.924-3.556-4.347-4.93-.791-.762-4.479-3.562-4.693-4.61-.207-1.014 1.504-3.311 2.054-4.46.79-1.644 1.356-3.656 1.745-5.025 2.9-10.196 3.195-24.204-.951-32.586-1.57-3.175-5.96-7.56-8.705-9.637C79.74 1.254 73.546-.106 67.565.006Zm.478 2.84C72.89 2.799 78.28 4.509 81.93 6.568c3.05 1.72 5.3 5.048 7.446 7.817-3.009-.893-5.57.642-5.103 3.124 2.519-2.309 6.822-.025 8.095 2.528 1.217 2.44 1.209 6.057 1.396 9.685.453 8.798-1.61 17.875-6.031 24.234-1.182 1.698-2.174 3.554-3.836 4.723-4.006 2.813-10.095 5.363-15.309 3.614-6.89-2.312-10.02-6.903-13.81-12.16.103 2.888 2.134 5.258 4.14 7.467 1.745 1.925 3.851 4.1 6.117 4.998-1.89-.444-4.792-.583-5.58 1.114-4.41-.293-8.508-.744-10.594-3.733-1.644-2.356-3.314-6.363-4.063-9.458-.153-.636-.415-1.99-.351-2.337.246-1.343 2.638-1.933 1.697-3.81-1.736-.016-2.127 1.58-3.72 1.738-4.125.408-7.035-5.467-6.848-9.012.159-3.014 2.707-5.898 6.192-5.517 2.463.27 3.3 2.958 3.778 5.35 1.42.076 3.471-.061 4.143-1.169-.097-2.703-1.352-4.871-1.266-7.355.162-4.668 2.705-8.88.743-13.478 2.1-4.764 8.261-8.524 12.818-10.797 1.765-.88 3.856-1.264 6.06-1.286zM55.505 5.192c.198.032.38.186.556.374-.03.811-.83.794-1.37 1.054-.84 1.033-2.068 1.516-3.09 2.648-1.049 1.16-2.222 4.276-3.612 4.62-.697.174-1.493-.12-2.1-.08-1.605.101-2.735.923-4.363 1.159 2.102-4.595 8.659-8.313 13.774-9.762a.468.468 0 0 1 .205-.013zm8.74 9.973c-2.637.003-5.64 2.822-6.423 4.973-.318.874-.82 2.59.441 2.895 1.413-3.149 3.729-6.185 8.39-5.1.895-1.471-.705-2.552-1.887-2.73a3.477 3.477 0 0 0-.522-.038zm-16.656.48c1.802 4.586-1.293 10.036-.14 15.051.353 1.536 1.574 3.92-.376 3.972.051-4.37-5.37-7.143-9.455-4.574-.273-3.314-.746-7.973 1.514-10.459 2.085-2.296 4.959-3.725 8.457-3.99zm41.776 7.597c-.149 2.517.786 4.032 1.435 5.812-1.122.706-3.305.266-4.57.819-.09 3.723 5.76 1.888 6.65-.185-1.33-1.932-2.241-4.25-3.295-6.437l-.22-.01zm-20.325.057c-.692 1.964 1.188 5.298 2.242 6.984-1.373 1.333-3.842.226-5.679.14-1.753 2.769 3.423 3.29 5.644 2.634.608-.179 1.66-1.09 1.805-1.5.617-1.733-.627-2.493-1.267-3.117-1.42-1.384-1.746-3.31-2.745-5.141zm10.549 1.81c-.134-.018-.295.03-.488.17-.125 4.616 3.305 8.437 5.863 11.52 1.25 1.505 2.756 2.365 1.369 4.703-2.236.85-5.855 3.285-8.964 2.753-1.65-.282-1.278-2.155-1.87-3.173-1.138 1.497-.692 3.762.48 4.78 5.479.542 9.208-1.794 12.552-3.943-.133-.842 1.012-2.36.694-3.626-.11-.436-1.102-1.068-1.704-1.727-2.453-2.675-5.814-6.672-7.15-9.798-.12-.28-.201-1.583-.782-1.66zm-38.98 8.635c-1.267-.02-2.415.815-2.686 2.783.562-.368 1.015-1.415 2.028-.917-.89 1.737-.676 5.12.535 6.22-.007-2.062-.328-5.587 1.43-5.48 1.231.074 1.48 2.71 2.528 3.308.723-3.478-1.722-5.882-3.835-5.914zm50.051 10.36c-2.673 1.22-4.83 2.997-8.322 3.332-.169.577-.097 2.033-.004 2.99 4.567-.095 6.77-3.358 8.326-6.321zm-21.884 1.921c1.335 3.573 7.353 4.833 12.443 4.579-.008-1.058-.003-2.13-.215-2.998-3.96.116-9.315-.049-12.228-1.58zm-.553 2.858c-2.573.003-.403 1.434.033 1.994.902 1.16 1.96 3.139 3.608 4.015 2.598 1.38 7.758.801 9.63.04.692-.28 1.25-1.057 1.507-1.713-5.84.14-12.763.722-14.778-4.336zm19.436 9.83c2 1.611 3.208 3.127 5.126 4.85 1.04.933 3.088 2.051 3.295 3.56.115.842-.401 2.905-.591 3.852-.84 4.154-2.73 9.642-4.53 13.995-.654 1.582-1.28 3.56-2.143 3.902-2.364.936-5.233-.091-7.242 1.16 2.7-4.685 5.64-9.111 8.286-13.852-.403-.94-1.391-1.341-1.678-2.388 1.858-3.509 1.004-14.403-3.738-12.103.663-.974 2.404-1.778 3.215-2.976zm-41.724 2.48c.431-.17 3.577 3.923 4.042 4.255 2.55 1.81 5.716 3.24 8.677 4.653.181 1.359.6 3.12 1.338 5.476.813 2.602 1.484 6.274 4.922 4.398-.327 1.486-2.237 2.408-1.71 4.141.33 1.087 3.94 2.43 5.084 3.076 2.111 1.19 4.037 1.848 5.659 2.544-7.37.202-14.291.802-21.102 1.729-.816-1.264-.487-3.212-.573-5.225-.094-2.186.815-7.114-.044-7.42-.971-.345-1.153 1.623-1.188 2.057-.182 2.308 1.099 7.195-.164 9.958-1.382-.391-2.063-1.43-3.358-1.902-.508 1.6 1.052 1.677.892 2.693-.212 1.343-2.757.22-2.743 2.217 1.657.266 4.199-.515 5.97.232.463 5.433 1.207 10.581 2.022 16.352-7.048-.366-11.61-3.868-16.805-6.297-.323-11.49-2.154-23.41-6.688-33.14 4.756-3.67 10.078-7.552 15.77-9.796zm39.082 2.626c.316.015.613.094.884.252 1.032.602 1.471 4.036 1.551 5.706.067 1.385-.126 2.783-.69 3.517-2.902-.085-5.524-.43-7.82-1.078.157-.94-.135-1.865.1-2.543.639-.46 1.711-.452 2.678-.56-.836-.412-2.01-.575-2.975-.337-.023-.654-.316-1.058-.493-1.57 1.427-.509 4.554-3.496 6.765-3.387zm-5.2.127c-1.218.794-2.255 1.787-3.424 2.635-2.593.129-4.008-.179-5.913-1.668.03-.12.222-.066.23-.213 2.775 1.237 6.304-.504 9.106-.754zm-27.347.049c1.447 1.005 4.247.757 6.378 1.131.11.683-.442 1.58-.432 2.531-1.793-.11-7.427-2.16-5.946-3.662zm9.772.573c.155-.004.321.011.5.045 2.304.44 4.984 1.502 6.768 2.477 1.09.596 1.721 1.332 3.375 1.46-.007.22-.017.44-.025.662-.906.595-2.369.588-3.363 1.088 1.466.064 2.62.417 3.618.915l-.065 1.659c-1.661 1.137-3.178 2.83-5.133 3.896-.925.504-4.17 1.802-5.153 1.572-.557-.129-.607-.82-.83-1.47-.473-1.395-1.564-3.614-1.66-5.712-.113-2.485-.356-6.545 1.968-6.592zm13.294 3.463c.137-.011.267-.007.39.011 2.126.313 1.972 4.722-1.392 3.67-.253-1.444-.546-1.856-.433-3.115.542-.361 1.022-.533 1.435-.566zm1.936 5.014c1.218.13 2.182 1.81 3.92 1.7-.279 4.532-.133 9.08-1.398 13.232-2.357-4.322-3.744-9.54-6.795-13.217.322-.342.61-.721.926-1.071 1.382.578 2.284-.758 3.347-.644zm7.008 1.442c1.678-.013 3.052 1.084 3.807 2.297-2.364 4.05-4.626 8.208-7.43 11.78 1.175-3.458 1.679-9.245 1.857-13.657a4.222 4.222 0 0 1 1.766-.42zM71.71 76.03c2.8 3.554 4.504 8.125 6.38 12.537-4.432-1.336-8.96-3.504-12.844-5.702.762-3.304 3.75-5.016 6.464-6.835zm29.511 11.728c1.217.03 2.426 1.018 2.955 1.819.956 1.444 1.849 5.695 2.35 7.952.747 3.359-.932 6.629-3.603 7.277v.001c-1.944.472-4.926.596-6.199-.019 1.558-.851 3.899-.856 5.702-1.44-2.583-1.112-6.405-.064-9.511-.258-.375-3.835-.658-7.993-1.567-11.02 1.813-1.927 6.193-2.39 8.68-3.981a2.077 2.077 0 0 1 1.193-.331zm-.211 3.578c-3.183.094-5.67.937-7.09 2.938 2.583.165 4.443-2.408 7.09-2.938zm-12.54.785c.225.01.447.035.66.083 1.692 2.91 2.056 7.749 2 11.261-1.055.204-1.74.808-3.02.768-.327-4.001-1.256-8.208-1.638-12.02.61-.012 1.32-.12 1.997-.092zm-19.603.043c3.34-.054 6.58.142 9.385.726.685 4.453.43 8.845.93 13.21.662 5.808.166 12.434 1.3 17.876-6.173 1.913-14.59 1.728-21.574-.392-3.147-9.643-4.863-18.796-6.047-29.685 4.587-.858 10.437-1.645 16.006-1.735zm14.824.384c1.103 3.987 1.037 9.06 1.579 13.567-1.668.366-2.888.545-4.683.815-.357-4.682-.63-9.295-.566-13.971 1.272-.426 2.394-.4 3.67-.411zm14.486 2.296c-1.26.016-2.394.29-2.88 1.032 2.19.18 4.722-.17 6.88-.398-.984-.34-2.572-.653-4-.634zm-.361 3.24c-1.128.014-2.123.228-2.634.777 2.304.193 5.318.241 7.743.189-.983-.458-3.23-.99-5.11-.966zM83.098 108.82c.236-.037.45-.045.627.002.348 3.045 1.555 6.131 1.404 9.466-1.34.452-2.11.848-3.907.845-.126-2.834-.506-7.166-.392-9.868.662.044 1.561-.334 2.268-.445z"/><path fill="#81b0c4" d="M84.48 74.486a4.225 4.225 0 0 0-1.767.42c-.178 4.412-.68 10.199-1.856 13.656 2.805-3.571 5.066-7.73 7.43-11.779-.756-1.213-2.129-2.31-3.807-2.297zM71.71 76.03c-2.714 1.82-5.7 3.532-6.463 6.836 3.884 2.198 8.412 4.365 12.844 5.701-1.876-4.41-3.58-8.982-6.381-12.537z"/><path fill="#f0d6b7" d="M79.817 63.945c-1.218.795-2.255 1.787-3.424 2.636-2.593.128-4.008-.18-5.913-1.669.031-.12.223-.066.23-.213 2.775 1.237 6.304-.504 9.107-.754"/><path fill="#1d1919" d="M79.135 76.728a.94.94 0 1 1-1.881 0 .94.94 0 0 1 1.881 0m.941 4.361a.94.94 0 1 1-1.882 0 .94.94 0 0 1 1.882 0"/></symbol>
<symbol id="icon-googlecolab" viewBox="0 0 128 128"><path fill="#ffb300" d="M90.437 26.434c-20.748 0-37.567 16.82-37.567 37.567 0 20.748 16.82 37.563 37.567 37.563C111.181 101.564 128 84.749 128 64s-16.82-37.567-37.563-37.567zm0 55.651c-9.992 0-18.088-8.096-18.088-18.084 0-9.992 8.096-18.088 18.088-18.088 9.988 0 18.084 8.096 18.084 18.088 0 9.988-8.096 18.084-18.084 18.084zm0 0"/><path fill="#ffb300" d="M50.477 76.664v-.008a18.022 18.022 0 0 1-12.91 5.43c-9.992 0-18.088-8.097-18.088-18.085 0-9.992 8.096-18.088 18.088-18.088 5.092 0 9.686 2.11 12.973 5.499l10.434-16.764c-6.423-5.127-14.551-8.214-23.407-8.214C16.819 26.434 0 43.254 0 64.001c0 20.748 16.82 37.563 37.567 37.563 8.801 0 16.882-3.051 23.286-8.12zm0 0"/><path fill="#f57a00" d="M19.479 64c0-4.974 2.01-9.474 5.256-12.745l-13.51-14.018C4.302 44.048 0 53.519 0 64c0 10.43 4.258 19.866 11.124 26.674L24.853 76.86A18.034 18.034 0 0 1 19.479 64Zm83.841-12.686a18.028 18.028 0 0 1 5.201 12.687c0 9.988-8.096 18.084-18.084 18.084-5.084 0-9.667-2.1-12.953-5.476L63.57 90.232c6.823 6.984 16.33 11.332 26.866 11.332C111.181 101.564 128 84.749 128 64c0-10.255-4.117-19.534-10.771-26.31zm0 0"/></symbol>
</defs>
<g transform="translate(110 80)">
  <g filter="url(#pinkGlow2)">
    <animateTransform attributeName="transform" type="translate" values="0.0 0.0; -8.1 -8.9; 8.5 5.7; 14.1 -13.2; -2.8 -15.0; 0.0 0.0" dur="8.1s" begin="0.1s" repeatCount="indefinite" calcMode="spline" keySplines="0.42 0 0.58 1;0.42 0 0.58 1;0.42 0 0.58 1;0.42 0 0.58 1;0.42 0 0.58 1"/>
    <g>
      <animateTransform attributeName="transform" type="rotate" values="-5.7; -3.6; 1.8; 0.5" dur="6.9s" begin="1.5s" repeatCount="indefinite" additive="sum"/>
      <use href="#icon-python" xlink:href="#icon-python" x="-32.0" y="-32.0" width="64" height="64"><title>Python</title></use>
    </g>
  </g>
</g>
<g transform="translate(280 150)">
  <g filter="url(#pinkGlow2)">
    <animateTransform attributeName="transform" type="translate" values="0.0 0.0; 11.1 -15.8; 11.0 6.3; -5.8 -11.0; 16.5 -5.2; 0.0 0.0" dur="6.4s" begin="1.8s" repeatCount="indefinite" calcMode="spline" keySplines="0.42 0 0.58 1;0.42 0 0.58 1;0.42 0 0.58 1;0.42 0 0.58 1;0.42 0 0.58 1"/>
    <g>
      <animateTransform attributeName="transform" type="rotate" values="4.2; 1.2; 3.7; 2.8" dur="6.4s" begin="0.3s" repeatCount="indefinite" additive="sum"/>
      <use href="#icon-javascript" xlink:href="#icon-javascript" x="-32.0" y="-32.0" width="64" height="64"><title>JavaScript</title></use>
    </g>
  </g>
</g>
<g transform="translate(460 60)">
  <g filter="url(#pinkGlow2)">
    <animateTransform attributeName="transform" type="translate" values="0.0 0.0; -4.4 1.7; 11.9 3.8; 13.0 2.5; 7.4 -14.5; 0.0 0.0" dur="7.6s" begin="2.9s" repeatCount="indefinite" calcMode="spline" keySplines="0.42 0 0.58 1;0.42 0 0.58 1;0.42 0 0.58 1;0.42 0 0.58 1;0.42 0 0.58 1"/>
    <g>
      <animateTransform attributeName="transform" type="rotate" values="-5.0; -3.2; -4.8; -2.7" dur="6.9s" begin="0.9s" repeatCount="indefinite" additive="sum"/>
      <use href="#icon-react" xlink:href="#icon-react" x="-32.0" y="-32.0" width="64" height="64"><title>React</title></use>
    </g>
  </g>
</g>
<g transform="translate(620 130)">
  <g filter="url(#pinkGlow2)">
    <animateTransform attributeName="transform" type="translate" values="0.0 0.0; -4.7 -9.3; -8.4 14.0; 5.3 3.5; -11.8 7.3; 0.0 0.0" dur="8.0s" begin="1.1s" repeatCount="indefinite" calcMode="spline" keySplines="0.42 0 0.58 1;0.42 0 0.58 1;0.42 0 0.58 1;0.42 0 0.58 1;0.42 0 0.58 1"/>
    <g>
      <animateTransform attributeName="transform" type="rotate" values="5.9; 1.7; 0.7; 2.2" dur="6.7s" begin="1.1s" repeatCount="indefinite" additive="sum"/>
      <use href="#icon-html5" xlink:href="#icon-html5" x="-32.0" y="-32.0" width="64" height="64"><title>HTML5</title></use>
    </g>
  </g>
</g>
<g transform="translate(780 55)">
  <g filter="url(#pinkGlow2)">
    <animateTransform attributeName="transform" type="translate" values="0.0 0.0; -9.8 -15.0; -6.6 -7.4; -10.4 14.2; 13.5 -5.9; 0.0 0.0" dur="8.9s" begin="2.3s" repeatCount="indefinite" calcMode="spline" keySplines="0.42 0 0.58 1;0.42 0 0.58 1;0.42 0 0.58 1;0.42 0 0.58 1;0.42 0 0.58 1"/>
    <g>
      <animateTransform attributeName="transform" type="rotate" values="5.0; -0.5; -2.8; -3.0" dur="8.6s" begin="1.2s" repeatCount="indefinite" additive="sum"/>
      <use href="#icon-css3" xlink:href="#icon-css3" x="-32.0" y="-32.0" width="64" height="64"><title>CSS3</title></use>
    </g>
  </g>
</g>
<g transform="translate(950 110)">
  <g filter="url(#pinkGlow2)">
    <animateTransform attributeName="transform" type="translate" values="0.0 0.0; 3.0 12.7; -3.6 -9.0; 17.9 0.3; -14.7 -14.5; 0.0 0.0" dur="7.7s" begin="0.8s" repeatCount="indefinite" calcMode="spline" keySplines="0.42 0 0.58 1;0.42 0 0.58 1;0.42 0 0.58 1;0.42 0 0.58 1;0.42 0 0.58 1"/>
    <g>
      <animateTransform attributeName="transform" type="rotate" values="3.5; -0.9; -5.2; -1.4" dur="6.4s" begin="1.9s" repeatCount="indefinite" additive="sum"/>
      <use href="#icon-fastapi" xlink:href="#icon-fastapi" x="-32.0" y="-32.0" width="64" height="64"><title>FastAPI</title></use>
    </g>
  </g>
</g>
<g transform="translate(1100 190)">
  <g filter="url(#pinkGlow2)">
    <animateTransform attributeName="transform" type="translate" values="0.0 0.0; 17.0 11.5; -17.6 7.1; 6.5 1.2; -8.4 4.5; 0.0 0.0" dur="9.5s" begin="1.6s" repeatCount="indefinite" calcMode="spline" keySplines="0.42 0 0.58 1;0.42 0 0.58 1;0.42 0 0.58 1;0.42 0 0.58 1;0.42 0 0.58 1"/>
    <g>
      <animateTransform attributeName="transform" type="rotate" values="-0.6; 5.4; 4.5; -2.8" dur="6.4s" begin="1.3s" repeatCount="indefinite" additive="sum"/>
      <use href="#icon-mysql" xlink:href="#icon-mysql" x="-32.0" y="-32.0" width="64" height="64"><title>MySQL</title></use>
    </g>
  </g>
</g>
<g transform="translate(150 220)">
  <g filter="url(#pinkGlow2)">
    <animateTransform attributeName="transform" type="translate" values="0.0 0.0; 14.9 11.9; -7.3 4.4; 3.9 -11.1; 9.5 1.3; 0.0 0.0" dur="7.5s" begin="0.5s" repeatCount="indefinite" calcMode="spline" keySplines="0.42 0 0.58 1;0.42 0 0.58 1;0.42 0 0.58 1;0.42 0 0.58 1;0.42 0 0.58 1"/>
    <g>
      <animateTransform attributeName="transform" type="rotate" values="-6.0; -2.1; -5.8; 5.1" dur="9.1s" begin="1.6s" repeatCount="indefinite" additive="sum"/>
      <use href="#icon-git" xlink:href="#icon-git" x="-32.0" y="-32.0" width="64" height="64"><title>Git</title></use>
    </g>
  </g>
</g>
<g transform="translate(340 260)">
  <g filter="url(#pinkGlow2)">
    <animateTransform attributeName="transform" type="translate" values="0.0 0.0; -6.9 -14.1; 13.6 14.3; -14.9 -0.4; -15.5 8.3; 0.0 0.0" dur="9.0s" begin="2.5s" repeatCount="indefinite" calcMode="spline" keySplines="0.42 0 0.58 1;0.42 0 0.58 1;0.42 0 0.58 1;0.42 0 0.58 1;0.42 0 0.58 1"/>
    <g>
      <animateTransform attributeName="transform" type="rotate" values="-0.3; 0.6; -2.8; 4.5" dur="9.1s" begin="0.4s" repeatCount="indefinite" additive="sum"/>
      <use href="#icon-github" xlink:href="#icon-github" x="-32.0" y="-32.0" width="64" height="64"><title>GitHub</title></use>
    </g>
  </g>
</g>
<g transform="translate(540 230)">
  <g filter="url(#pinkGlow2)">
    <animateTransform attributeName="transform" type="translate" values="0.0 0.0; 1.4 7.4; -10.8 -6.0; 17.8 4.8; -2.2 0.6; 0.0 0.0" dur="7.2s" begin="0.6s" repeatCount="indefinite" calcMode="spline" keySplines="0.42 0 0.58 1;0.42 0 0.58 1;0.42 0 0.58 1;0.42 0 0.58 1;0.42 0 0.58 1"/>
    <g>
      <animateTransform attributeName="transform" type="rotate" values="-1.9; 1.1; -3.2; -3.4" dur="6.5s" begin="0.7s" repeatCount="indefinite" additive="sum"/>
      <use href="#icon-java" xlink:href="#icon-java" x="-32.0" y="-32.0" width="64" height="64"><title>Java</title></use>
    </g>
  </g>
</g>
<g transform="translate(720 250)">
  <g filter="url(#pinkGlow2)">
    <animateTransform attributeName="transform" type="translate" values="0.0 0.0; -9.8 13.0; 12.9 -13.7; -9.4 5.4; -10.3 -11.8; 0.0 0.0" dur="5.8s" begin="1.9s" repeatCount="indefinite" calcMode="spline" keySplines="0.42 0 0.58 1;0.42 0 0.58 1;0.42 0 0.58 1;0.42 0 0.58 1;0.42 0 0.58 1"/>
    <g>
      <animateTransform attributeName="transform" type="rotate" values="-0.3; 3.4; 3.7; -3.7" dur="9.7s" begin="1.7s" repeatCount="indefinite" additive="sum"/>
      <use href="#icon-streamlit" xlink:href="#icon-streamlit" x="-32.0" y="-32.0" width="64" height="64"><title>Streamlit</title></use>
    </g>
  </g>
</g>
<g transform="translate(900 220)">
  <g filter="url(#pinkGlow2)">
    <animateTransform attributeName="transform" type="translate" values="0.0 0.0; -2.8 -1.1; 8.2 5.5; 17.4 -12.9; -3.5 -5.1; 0.0 0.0" dur="5.9s" begin="1.3s" repeatCount="indefinite" calcMode="spline" keySplines="0.42 0 0.58 1;0.42 0 0.58 1;0.42 0 0.58 1;0.42 0 0.58 1;0.42 0 0.58 1"/>
    <g>
      <animateTransform attributeName="transform" type="rotate" values="-3.7; -0.6; -0.9; -2.7" dur="9.4s" begin="0.7s" repeatCount="indefinite" additive="sum"/>
      <use href="#icon-jenkins" xlink:href="#icon-jenkins" x="-32.0" y="-32.0" width="64" height="64"><title>Jenkins</title></use>
    </g>
  </g>
</g>
<g transform="translate(1050 60)">
  <g filter="url(#pinkGlow2)">
    <animateTransform attributeName="transform" type="translate" values="0.0 0.0; -2.0 11.6; 1.8 -14.4; 18.0 10.8; 16.9 13.6; 0.0 0.0" dur="6.5s" begin="2.8s" repeatCount="indefinite" calcMode="spline" keySplines="0.42 0 0.58 1;0.42 0 0.58 1;0.42 0 0.58 1;0.42 0 0.58 1;0.42 0 0.58 1"/>
    <g>
      <animateTransform attributeName="transform" type="rotate" values="-0.2; -3.4; -1.2; -5.3" dur="9.4s" begin="0.5s" repeatCount="indefinite" additive="sum"/>
      <use href="#icon-googlecolab" xlink:href="#icon-googlecolab" x="-32.0" y="-32.0" width="64" height="64"><title>Google Colab</title></use>
    </g>
  </g>
</g>
</svg>
